<svg xmlns="http://www.w3.org/2000/svg" viewBox="0 0 64 64">
  <ellipse cx="32" cy="56" rx="22" ry="6" fill="#f97316" opacity="0.4"/>
  <path d="M14 40 Q8 26 16 12 Q14 24 22 26 Q12 14 20 2 Q22 16 30 20 Q24 8 32 0 Q40 8 34 20 Q42 12 44 2 Q52 14 50 26 Q58 20 56 10 Q64 24 50 40" fill="#f97316"/>
  <path d="M16 38 Q10 26 18 14 Q16 24 24 26 Q14 14 22 4 Q24 16 32 20 Q40 12 42 4 Q50 16 48 26 Q56 22 54 12 Q60 26 52 40" fill="#fbbf24" opacity="0.85"/>
  <circle cx="32" cy="40" r="22" fill="#f5f0e0" stroke="#191919" stroke-width="1.5"/>
  <path d="M20 30 Q15 36 15 40 Q15 46 20 52" fill="none" stroke="#b90f0f" stroke-width="2" stroke-linecap="round"/>
  <path d="M17 31 L21 34 M16 37 L20 38 M16 43 L20 43 M17 49 L21 46" fill="none" stroke="#b90f0f" stroke-width="1.3" stroke-linecap="round"/>
  <path d="M44 30 Q49 36 49 40 Q49 46 44 52" fill="none" stroke="#b90f0f" stroke-width="2" stroke-linecap="round"/>
  <path d="M47 31 L43 34 M48 37 L44 38 M48 43 L44 43 M47 49 L43 46" fill="none" stroke="#b90f0f" stroke-width="1.3" stroke-linecap="round"/>
  <path d="M26 34 Q24 28 28 22 Q28 28 32 26 Q30 20 34 14 Q38 20 36 26 Q40 22 40 16 Q44 22 42 32" fill="#f97316" opacity="0.65"/>
</svg>